<?xml version="1.0" encoding="UTF-8"?>
<svg width="400" height="400" viewBox="0 0 400 400" fill="none" xmlns="http://www.w3.org/2000/svg">
  <circle cx="200" cy="200" r="190" fill="#1A1A1A" stroke="#4285F4" stroke-width="20"/>
  <path d="M115 165V260H145V224.231H172.5V195.769H145V195H175V165H115Z" fill="#4285F4"/>
  <path d="M190 165V260H220V224.231H230C243.807 224.231 255 212.865 255 198.846V190.385C255 176.366 243.807 165 230 165H190ZM220 195.769V195H230C230 195 230 195.769 230 195.769H220Z" fill="#4285F4"/>
  <path d="M270 165V195H285V260H315V195H330V165H270Z" fill="#4285F4"/>
  <path d="M93 285L121 300L96 320L93 285Z" fill="#4285F4"/>
  <path d="M308 285L280 300L305 320L308 285Z" fill="#4285F4"/>
</svg>